<svg xmlns="http://www.w3.org/2000/svg" version="1.1" xmlns:xlink="http://www.w3.org/1999/xlink" xmlns:svgjs="http://svgjs.dev/svgjs" width="1000" height="1000" viewBox="0 0 1000 1000"><rect width="1000" height="1000" fill="#ffffff"></rect><g transform="matrix(0.7,0,0,0.7,149.8990515109818,150.28340080971662)"><svg viewBox="0 0 247 247" data-background-color="#31c48d" preserveAspectRatio="xMidYMid meet" height="1000" width="1000" xmlns="http://www.w3.org/2000/svg" xmlns:xlink="http://www.w3.org/1999/xlink"><g id="tight-bounds" transform="matrix(1,0,0,1,0.035620395410717265,-0.09999999999999432)"><svg viewBox="0 0 246.9287592091786 247.2" height="247.2" width="246.9287592091786"><g><svg viewBox="0 0 395.52 395.95446197975986" height="247.2" width="246.9287592091786"><g transform="matrix(1,0,0,1,0,319.24559127599554)"><svg viewBox="0 0 395.52 76.70887070376432" height="76.70887070376432" width="395.52"><g id="textblocktransform"><svg viewBox="0 0 395.52 76.70887070376432" height="76.70887070376432" width="395.52" id="textblock"><g><svg viewBox="0 0 395.52 76.70887070376432" height="76.70887070376432" width="395.52"><g transform="matrix(1,0,0,1,0,0)"><svg width="395.52" viewBox="1.95 -35.2 183.29000000000002 35.550000000000004" height="76.70887070376432" data-palette-color="#ffffff"><path d="M1.95-34.75L26.2-34.75 26.2-30.1 16.95-30.1 16.95 0 11.25 0 11.25-30.1 1.95-30.1 1.95-34.75ZM55.4 0L52.9-7.1 38.35-7.1 35.85 0 29.9 0 42.35-34.8 48.95-34.8 61.4 0 55.4 0ZM39.95-11.75L51.3-11.75 45.65-27.9 39.95-11.75ZM93.59-34.75L82.75-17.35 93.55 0 87.15 0 79.3-12.6 71.95 0 65.59 0 76.4-17.35 65.55-34.75 71.95-34.75 79.84-22.05 87.25-34.75 93.59-34.75ZM99.79-34.75L105.49-34.75 105.49 0 99.79 0 99.79-34.75ZM144.99-24.75L138.14-24.75Q136.79-27.35 134.39-28.68 131.99-30 128.84-30L128.84-30Q125.39-30 122.69-28.45 119.99-26.9 118.47-24.05 116.94-21.2 116.94-17.45L116.94-17.45Q116.94-13.7 118.47-10.83 119.99-7.95 122.69-6.4 125.39-4.85 128.84-4.85L128.84-4.85Q133.49-4.85 136.39-7.45 139.29-10.05 139.94-14.5L139.94-14.5 126.89-14.5 126.89-19.05 146.04-19.05 146.04-14.6Q145.49-10.55 143.17-7.15 140.84-3.75 137.12-1.73 133.39 0.3 128.84 0.3L128.84 0.3Q123.94 0.3 119.89-1.98 115.84-4.25 113.47-8.3 111.09-12.35 111.09-17.45L111.09-17.45Q111.09-22.55 113.47-26.6 115.84-30.65 119.92-32.93 123.99-35.2 128.84-35.2L128.84-35.2Q134.39-35.2 138.72-32.48 143.04-29.75 144.99-24.75L144.99-24.75ZM167.49 0.35Q162.64 0.35 158.56-1.93 154.49-4.2 152.11-8.28 149.74-12.35 149.74-17.45L149.74-17.45Q149.74-22.55 152.11-26.6 154.49-30.65 158.56-32.93 162.64-35.2 167.49-35.2L167.49-35.2Q172.39-35.2 176.46-32.93 180.54-30.65 182.89-26.6 185.24-22.55 185.24-17.45L185.24-17.45Q185.24-12.35 182.89-8.28 180.54-4.2 176.46-1.93 172.39 0.35 167.49 0.35L167.49 0.35ZM167.49-4.6Q170.94-4.6 173.64-6.18 176.34-7.75 177.86-10.68 179.39-13.6 179.39-17.45L179.39-17.45Q179.39-21.3 177.86-24.2 176.34-27.1 173.64-28.65 170.94-30.2 167.49-30.2L167.49-30.2Q164.04-30.2 161.34-28.65 158.64-27.1 157.11-24.2 155.59-21.3 155.59-17.45L155.59-17.45Q155.59-13.6 157.11-10.68 158.64-7.75 161.34-6.18 164.04-4.6 167.49-4.6L167.49-4.6Z" opacity="1" transform="matrix(1,0,0,1,0,0)" fill="#000000" class="undefined-text-0" data-fill-palette-color="primary" id="text-0"></path></svg></g></svg></g></svg></g></svg></g><g transform="matrix(1,0,0,1,56.246327722264084,0)"><svg viewBox="0 0 283.0273445554718 283.0273445554718" height="283.0273445554718" width="283.0273445554718"><g><svg></svg></g><g id="icon-0"><svg viewBox="0 0 283.0273445554718 283.0273445554718" height="283.0273445554718" width="283.0273445554718"><g><path d="M0 141.514c0-78.156 63.358-141.514 141.514-141.514 78.156 0 141.514 63.358 141.513 141.514 0 78.156-63.358 141.514-141.513 141.513-78.156 0-141.514-63.358-141.514-141.513zM141.514 276.11c74.335 0 134.596-60.261 134.596-134.596 0-74.335-60.261-134.596-134.596-134.596-74.335 0-134.596 60.261-134.596 134.596 0 74.335 60.261 134.596 134.596 134.596z" data-fill-palette-color="accent" fill="#000000" stroke="transparent"></path><ellipse rx="140.09853555495854" ry="140.09853555495854" cx="141.5136722777359" cy="141.5136722777359" fill="#000000" stroke="transparent" stroke-width="0" fill-opacity="1" data-fill-palette-color="accent"></ellipse></g><g transform="matrix(1,0,0,1,56.99022859724286,60.37116634446258)"><svg viewBox="0 0 169.0468873609861 162.28501186654665" height="162.28501186654665" width="169.0468873609861"><g><svg xmlns="http://www.w3.org/2000/svg" xmlns:xlink="http://www.w3.org/1999/xlink" version="1.1" x="0" y="0" viewBox="0 4 100 96" enable-background="new 0 0 100 100" xml:space="preserve" height="162.28501186654665" width="169.0468873609861" class="icon-g$-0" data-fill-palette-color="quaternary" id="g$-0"><g fill="#31c48d" data-fill-palette-color="quaternary"><path fill="#ffffff" d="M39 14h22c1.1 0 1.823-0.882 1.607-1.961l-1.215-6.078C61.177 4.882 60.1 4 59 4H41c-1.1 0-2.176 0.882-2.392 1.961l-1.216 6.078C37.176 13.118 37.9 14 39 14z" data-fill-palette-color="quaternary"></path><path fill="#ffffff" d="M100 45.5c0-3.025-2.475-5.5-5.5-5.5h-6.577l-4.769-12.4c-1.185-3.08-4.75-6.342-7.924-7.249C75.23 20.352 67 18 50 18s-25.231 2.352-25.231 2.352c-3.173 0.907-6.738 4.168-7.923 7.249L12.077 40H5.5C2.475 40 0 42.475 0 45.5S2.475 51 5.5 51h2.346l-1.692 4.4C4.969 58.479 4 63.7 4 67v26c0 3.85 3.15 7 7 7s7-3.15 7-7v-4h64v4c0 3.85 3.15 7 7 7s7-3.15 7-7V67c0-3.3-0.97-8.521-2.154-11.6L92.153 51H94.5C97.525 51 100 48.525 100 45.5zM17.691 47.124l5.617-15.247C23.689 30.845 24.9 30 26 30h48c1.1 0 2.312 0.845 2.691 1.876l5.617 15.247C82.688 48.155 82.1 49 81 49H19C17.9 49 17.311 48.155 17.691 47.124zM17.5 72c-3.037 0-5.5-2.465-5.5-5.5s2.463-5.5 5.5-5.5 5.5 2.465 5.5 5.5S20.537 72 17.5 72zM82.5 72c-3.038 0-5.5-2.462-5.5-5.5s2.462-5.5 5.5-5.5 5.5 2.462 5.5 5.5S85.538 72 82.5 72z" data-fill-palette-color="quaternary"></path></g></svg></g></svg></g></svg></g></svg></g><g></g></svg></g><defs></defs></svg><rect width="246.9287592091786" height="247.2" fill="none" stroke="none" visibility="hidden"></rect></g></svg></g></svg>