<svg width="132" height="26" viewBox="0 0 132 26" fill="none" xmlns="http://www.w3.org/2000/svg">
<path d="M18.8621 1.10966V5.06071H12.3586V25.5153H7.46346V5.06071H0.959961V1.10966H18.8621Z" fill="#31C48D"/>
<path d="M37.3987 20.8649H27.6784L26.07 25.5153H20.9302L29.7064 1.07469H35.4057L44.1819 25.5153H39.0071L37.3987 20.8649ZM36.07 16.9488L32.5386 6.73903L29.0071 16.9488H36.07Z" fill="#31C48D"/>
<path d="M62.0777 25.5153L56.798 17.2985L52.0078 25.5153H46.4833L54.1756 13.2076L46.3784 1.10966H52.0078L57.2875 9.29148L62.0428 1.10966H67.5673L59.9099 13.3824L67.7071 25.5153H62.0777Z" fill="#31C48D"/>
<path d="M76.3276 1.10966V25.5153H71.4325V1.10966H76.3276Z" fill="#31C48D"/>
<path d="M98.157 8.45232C97.5976 7.42668 96.8283 6.64579 95.8493 6.10966C94.8703 5.57353 93.7281 5.30546 92.4228 5.30546C90.9775 5.30546 89.6955 5.6318 88.5766 6.28448C87.4577 6.93717 86.5836 7.86957 85.9542 9.08169C85.3249 10.2938 85.0102 11.6924 85.0102 13.2775C85.0102 14.9092 85.3249 16.3311 85.9542 17.5432C86.6069 18.7553 87.5043 19.6877 88.6465 20.3404C89.7887 20.9931 91.1174 21.3194 92.6325 21.3194C94.4973 21.3194 96.0241 20.8299 97.213 19.8509C98.4018 18.8486 99.1827 17.4616 99.5556 15.6901H91.164V11.9488H104.381V16.2146C104.054 17.9162 103.355 19.4896 102.283 20.9348C101.211 22.3801 99.8237 23.5456 98.1221 24.4313C96.4437 25.2938 94.5556 25.725 92.4577 25.725C90.1034 25.725 87.9705 25.2006 86.0591 24.1516C84.171 23.0794 82.6792 21.5992 81.5836 19.7111C80.5113 17.8229 79.9752 15.6784 79.9752 13.2775C79.9752 10.8766 80.5113 8.73204 81.5836 6.84392C82.6792 4.9325 84.171 3.45232 86.0591 2.40337C87.9705 1.3311 90.0918 0.794974 92.4228 0.794974C95.1733 0.794974 97.5626 1.47096 99.5906 2.82295C101.619 4.15162 103.017 6.02807 103.786 8.45232H98.157Z" fill="#31C48D"/>
<path d="M119.331 25.76C117.047 25.76 114.949 25.2239 113.037 24.1516C111.126 23.0794 109.611 21.5992 108.492 19.7111C107.373 17.7996 106.814 15.6435 106.814 13.2425C106.814 10.8649 107.373 8.73204 108.492 6.84392C109.611 4.9325 111.126 3.44066 113.037 2.3684C114.949 1.29614 117.047 0.76001 119.331 0.76001C121.639 0.76001 123.737 1.29614 125.625 2.3684C127.536 3.44066 129.04 4.9325 130.135 6.84392C131.254 8.73204 131.814 10.8649 131.814 13.2425C131.814 15.6435 131.254 17.7996 130.135 19.7111C129.04 21.5992 127.536 23.0794 125.625 24.1516C123.713 25.2239 121.615 25.76 119.331 25.76ZM119.331 21.3894C120.8 21.3894 122.093 21.063 123.212 20.4104C124.331 19.7344 125.205 18.7787 125.835 17.5432C126.464 16.3078 126.779 14.8742 126.779 13.2425C126.779 11.6108 126.464 10.1889 125.835 8.97679C125.205 7.74136 124.331 6.7973 123.212 6.14462C122.093 5.49194 120.8 5.1656 119.331 5.1656C117.863 5.1656 116.557 5.49194 115.415 6.14462C114.296 6.7973 113.422 7.74136 112.793 8.97679C112.163 10.1889 111.849 11.6108 111.849 13.2425C111.849 14.8742 112.163 16.3078 112.793 17.5432C113.422 18.7787 114.296 19.7344 115.415 20.4104C116.557 21.063 117.863 21.3894 119.331 21.3894Z" fill="#31C48D"/>
<g clip-path="url(#clip0_182_1363)">
<g clip-path="url(#clip1_182_1363)">
<path d="M119.5 25.875C126.335 25.875 131.875 20.3345 131.875 13.5C131.875 6.66548 126.335 1.125 119.5 1.125C112.665 1.125 107.125 6.66548 107.125 13.5C107.125 20.3345 112.665 25.875 119.5 25.875Z" fill="#31C48D"/>
<g clip-path="url(#clip2_182_1363)">
<g clip-path="url(#clip3_182_1363)">
<path d="M117.857 7.82597H121.143C121.307 7.82597 121.415 7.69427 121.382 7.53315L121.201 6.62558C121.169 6.46446 121.008 6.33276 120.844 6.33276H118.156C117.992 6.33276 117.831 6.46446 117.799 6.62558L117.617 7.53315C117.585 7.69427 117.693 7.82597 117.857 7.82597Z" fill="white"/>
<path d="M126.966 12.5296C126.966 12.078 126.597 11.7084 126.145 11.7084H125.163L124.451 9.85681C124.274 9.39691 123.741 8.90983 123.267 8.77439C123.267 8.77439 122.039 8.42334 119.5 8.42334C116.962 8.42334 115.733 8.77454 115.733 8.77454C115.259 8.90997 114.726 9.39691 114.55 9.85696L113.837 11.7084H112.855C112.404 11.7084 112.034 12.078 112.034 12.5296C112.034 12.9813 112.404 13.3509 112.855 13.3509H113.206L112.953 14.0079C112.776 14.4677 112.631 15.2473 112.631 15.74V19.6224C112.631 20.1972 113.102 20.6676 113.677 20.6676C114.251 20.6676 114.722 20.1972 114.722 19.6224V19.0251H124.278V19.6224C124.278 20.1972 124.749 20.6676 125.324 20.6676C125.898 20.6676 126.369 20.1972 126.369 19.6224V15.74C126.369 15.2473 126.224 14.4677 126.047 14.0079L125.794 13.3509H126.145C126.597 13.3509 126.966 12.9813 126.966 12.5296ZM114.676 12.7721L115.514 10.4955C115.571 10.3414 115.752 10.2152 115.916 10.2152H123.084C123.248 10.2152 123.429 10.3414 123.486 10.4953L124.324 12.772C124.381 12.9261 124.293 13.0523 124.129 13.0523H114.871C114.707 13.0523 114.619 12.9261 114.676 12.7721ZM114.647 16.4866C114.194 16.4866 113.826 16.1186 113.826 15.6654C113.826 15.2122 114.194 14.8441 114.647 14.8441C115.101 14.8441 115.468 15.2122 115.468 15.6654C115.468 16.1186 115.101 16.4866 114.647 16.4866ZM124.353 16.4866C123.899 16.4866 123.532 16.119 123.532 15.6654C123.532 15.2117 123.899 14.8441 124.353 14.8441C124.807 14.8441 125.174 15.2117 125.174 15.6654C125.174 16.119 124.807 16.4866 124.353 16.4866Z" fill="white"/>
</g>
</g>
</g>
</g>
<defs>
<clipPath id="clip0_182_1363">
<rect width="25" height="25" fill="white" transform="translate(107 1)"/>
</clipPath>
<clipPath id="clip1_182_1363">
<rect width="25" height="25" fill="white" transform="translate(107 1)"/>
</clipPath>
<clipPath id="clip2_182_1363">
<rect width="14.932" height="14.3347" fill="white" transform="translate(112.034 6.33276)"/>
</clipPath>
<clipPath id="clip3_182_1363">
<rect width="14.932" height="14.3347" fill="white" transform="translate(112.034 6.33276)"/>
</clipPath>
</defs>
</svg>
